<svg xmlns="http://www.w3.org/2000/svg" xmlns:xlink="http://www.w3.org/1999/xlink" width="5782" zoomAndPan="magnify" viewBox="0 0 4337.25 737.249977" height="982" preserveAspectRatio="xMidYMid meet" version="1.0"><defs><g/><clipPath id="8b9f51f936"><path d="M 41 28.464844 L 219 28.464844 L 219 104 L 41 104 Z M 41 28.464844 " clip-rule="nonzero"/></clipPath><clipPath id="668ab1e6cf"><path d="M 41 587 L 219 587 L 219 713.265625 L 41 713.265625 Z M 41 587 " clip-rule="nonzero"/></clipPath><clipPath id="221844bafd"><path d="M 270 28.464844 L 448 28.464844 L 448 104 L 270 104 Z M 270 28.464844 " clip-rule="nonzero"/></clipPath><clipPath id="c8c2866502"><path d="M 503 23.101562 L 681 23.101562 L 681 99 L 503 99 Z M 503 23.101562 " clip-rule="nonzero"/></clipPath></defs><g clip-path="url(#8b9f51f936)"><path fill="#7d2ae8" d="M 182.097656 28.464844 L 78.414062 28.464844 C 58.121094 28.464844 41.738281 44.96875 41.738281 65.144531 C 40.789062 86.054688 57.417969 103.71875 78.417969 103.65625 C 78.417969 103.65625 182.097656 103.65625 182.097656 103.65625 C 230.683594 102.59375 230.738281 29.617188 182.097656 28.464844 Z M 194.324219 66.976562 C 194.324219 73.824219 188.820312 79.203125 182.097656 79.203125 L 78.414062 79.203125 C 62.171875 79.285156 62.117188 52.917969 78.417969 52.917969 C 78.414062 52.917969 182.097656 52.917969 182.097656 52.917969 C 189.613281 52.871094 195.097656 59.65625 194.324219 66.976562 Z M 194.324219 66.976562 " fill-opacity="1" fill-rule="nonzero"/></g><path fill="#7d2ae8" d="M 206.550781 130.066406 L 53.964844 130.066406 C 47.238281 130.066406 41.738281 135.445312 41.738281 142.292969 L 41.738281 243.894531 C 41.738281 250.621094 47.238281 256.121094 53.964844 256.121094 L 206.550781 256.121094 C 213.273438 256.121094 218.777344 250.621094 218.777344 243.894531 L 218.777344 142.292969 C 218.777344 135.445312 213.273438 130.066406 206.550781 130.066406 Z M 206.550781 130.066406 " fill-opacity="1" fill-rule="nonzero"/><path fill="#7d2ae8" d="M 53.96875 282.410156 L 206.546875 282.410156 C 207.347656 282.410156 208.144531 282.488281 208.933594 282.644531 C 209.71875 282.804688 210.484375 283.035156 211.226562 283.34375 C 211.96875 283.648438 212.671875 284.027344 213.339844 284.472656 C 214.007812 284.917969 214.625 285.425781 215.195312 285.992188 C 215.761719 286.5625 216.269531 287.179688 216.714844 287.847656 C 217.160156 288.515625 217.539062 289.21875 217.84375 289.960938 C 218.152344 290.703125 218.382812 291.46875 218.542969 292.253906 C 218.699219 293.042969 218.777344 293.839844 218.777344 294.640625 L 218.777344 396.234375 C 218.777344 397.039062 218.699219 397.832031 218.542969 398.621094 C 218.382812 399.40625 218.152344 400.171875 217.84375 400.914062 C 217.539062 401.65625 217.160156 402.359375 216.714844 403.027344 C 216.269531 403.695312 215.761719 404.3125 215.195312 404.882812 C 214.625 405.449219 214.007812 405.957031 213.339844 406.402344 C 212.671875 406.847656 211.96875 407.226562 211.226562 407.535156 C 210.484375 407.839844 209.71875 408.074219 208.933594 408.230469 C 208.144531 408.386719 207.347656 408.464844 206.546875 408.464844 L 53.96875 408.464844 C 53.164062 408.464844 52.371094 408.386719 51.582031 408.230469 C 50.792969 408.074219 50.03125 407.839844 49.289062 407.535156 C 48.546875 407.226562 47.839844 406.847656 47.171875 406.402344 C 46.503906 405.957031 45.886719 405.449219 45.320312 404.882812 C 44.75 404.3125 44.246094 403.695312 43.796875 403.027344 C 43.351562 402.359375 42.976562 401.65625 42.667969 400.914062 C 42.359375 400.171875 42.128906 399.40625 41.972656 398.621094 C 41.816406 397.832031 41.738281 397.039062 41.738281 396.234375 L 41.738281 294.640625 C 41.738281 293.839844 41.816406 293.042969 41.972656 292.253906 C 42.128906 291.46875 42.359375 290.703125 42.667969 289.960938 C 42.976562 289.21875 43.351562 288.515625 43.796875 287.847656 C 44.246094 287.179688 44.75 286.5625 45.320312 285.992188 C 45.886719 285.425781 46.503906 284.917969 47.171875 284.472656 C 47.839844 284.027344 48.546875 283.648438 49.289062 283.34375 C 50.03125 283.035156 50.792969 282.804688 51.582031 282.644531 C 52.371094 282.488281 53.164062 282.410156 53.96875 282.410156 Z M 53.96875 282.410156 " fill-opacity="1" fill-rule="nonzero"/><path fill="#7d2ae8" d="M 53.96875 434.753906 L 206.546875 434.753906 C 207.347656 434.753906 208.144531 434.832031 208.933594 434.988281 C 209.71875 435.144531 210.484375 435.378906 211.226562 435.683594 C 211.96875 435.992188 212.671875 436.367188 213.339844 436.816406 C 214.007812 437.261719 214.625 437.769531 215.195312 438.335938 C 215.761719 438.902344 216.269531 439.523438 216.714844 440.1875 C 217.160156 440.855469 217.539062 441.5625 217.84375 442.304688 C 218.152344 443.046875 218.382812 443.808594 218.542969 444.597656 C 218.699219 445.386719 218.777344 446.179688 218.777344 446.984375 L 218.777344 548.578125 C 218.777344 549.378906 218.699219 550.175781 218.542969 550.964844 C 218.382812 551.75 218.152344 552.515625 217.84375 553.257812 C 217.539062 554 217.160156 554.703125 216.714844 555.371094 C 216.269531 556.039062 215.761719 556.65625 215.195312 557.226562 C 214.625 557.792969 214.007812 558.300781 213.339844 558.746094 C 212.671875 559.191406 211.96875 559.570312 211.226562 559.875 C 210.484375 560.183594 209.71875 560.414062 208.933594 560.570312 C 208.144531 560.730469 207.347656 560.808594 206.546875 560.808594 L 53.96875 560.808594 C 53.164062 560.808594 52.371094 560.730469 51.582031 560.570312 C 50.792969 560.414062 50.03125 560.183594 49.289062 559.875 C 48.546875 559.570312 47.839844 559.191406 47.171875 558.746094 C 46.503906 558.300781 45.886719 557.792969 45.320312 557.226562 C 44.75 556.65625 44.246094 556.039062 43.796875 555.371094 C 43.351562 554.703125 42.976562 554 42.667969 553.257812 C 42.359375 552.515625 42.128906 551.75 41.972656 550.964844 C 41.816406 550.175781 41.738281 549.378906 41.738281 548.578125 L 41.738281 446.984375 C 41.738281 446.179688 41.816406 445.386719 41.972656 444.597656 C 42.128906 443.808594 42.359375 443.046875 42.667969 442.304688 C 42.976562 441.5625 43.351562 440.855469 43.796875 440.1875 C 44.246094 439.523438 44.75 438.902344 45.320312 438.335938 C 45.886719 437.769531 46.503906 437.261719 47.171875 436.816406 C 47.839844 436.367188 48.546875 435.992188 49.289062 435.683594 C 50.03125 435.378906 50.792969 435.144531 51.582031 434.988281 C 52.371094 434.832031 53.164062 434.753906 53.96875 434.753906 Z M 53.96875 434.753906 " fill-opacity="1" fill-rule="nonzero"/><g clip-path="url(#668ab1e6cf)"><path fill="#7d2ae8" d="M 53.96875 587.097656 L 206.546875 587.097656 C 207.347656 587.097656 208.144531 587.175781 208.933594 587.332031 C 209.71875 587.488281 210.484375 587.71875 211.226562 588.027344 C 211.96875 588.335938 212.671875 588.710938 213.339844 589.15625 C 214.007812 589.605469 214.625 590.109375 215.195312 590.679688 C 215.761719 591.246094 216.269531 591.863281 216.714844 592.53125 C 217.160156 593.199219 217.539062 593.90625 217.84375 594.644531 C 218.152344 595.386719 218.382812 596.152344 218.542969 596.941406 C 218.699219 597.726562 218.777344 598.523438 218.777344 599.328125 L 218.777344 700.917969 C 218.777344 701.722656 218.699219 702.519531 218.542969 703.304688 C 218.382812 704.09375 218.152344 704.859375 217.84375 705.601562 C 217.539062 706.34375 217.160156 707.046875 216.714844 707.714844 C 216.269531 708.382812 215.761719 709 215.195312 709.566406 C 214.625 710.136719 214.007812 710.640625 213.339844 711.089844 C 212.671875 711.535156 211.96875 711.910156 211.226562 712.21875 C 210.484375 712.527344 209.71875 712.757812 208.933594 712.914062 C 208.144531 713.070312 207.347656 713.148438 206.546875 713.148438 L 53.96875 713.148438 C 53.164062 713.148438 52.371094 713.070312 51.582031 712.914062 C 50.792969 712.757812 50.03125 712.527344 49.289062 712.21875 C 48.546875 711.910156 47.839844 711.535156 47.171875 711.089844 C 46.503906 710.640625 45.886719 710.136719 45.320312 709.566406 C 44.75 709 44.246094 708.382812 43.796875 707.714844 C 43.351562 707.046875 42.976562 706.34375 42.667969 705.601562 C 42.359375 704.859375 42.128906 704.09375 41.972656 703.304688 C 41.816406 702.519531 41.738281 701.722656 41.738281 700.917969 L 41.738281 599.328125 C 41.738281 598.523438 41.816406 597.726562 41.972656 596.941406 C 42.128906 596.152344 42.359375 595.386719 42.667969 594.644531 C 42.976562 593.90625 43.351562 593.199219 43.796875 592.53125 C 44.246094 591.863281 44.75 591.246094 45.320312 590.679688 C 45.886719 590.109375 46.503906 589.605469 47.171875 589.15625 C 47.839844 588.710938 48.546875 588.335938 49.289062 588.027344 C 50.03125 587.71875 50.792969 587.488281 51.582031 587.332031 C 52.371094 587.175781 53.164062 587.097656 53.96875 587.097656 Z M 53.96875 587.097656 " fill-opacity="1" fill-rule="nonzero"/></g><g clip-path="url(#221844bafd)"><path fill="#8a87d5" d="M 411.132812 28.464844 L 307.449219 28.464844 C 287.277344 28.464844 270.769531 44.96875 270.769531 65.144531 C 269.816406 86.050781 286.574219 103.71875 307.449219 103.65625 C 307.449219 103.65625 411.132812 103.65625 411.132812 103.65625 C 459.71875 102.59375 459.773438 29.617188 411.132812 28.464844 Z M 423.359375 66.976562 C 423.359375 73.824219 417.855469 79.203125 411.132812 79.203125 L 307.449219 79.203125 C 291.207031 79.285156 291.148438 52.917969 307.449219 52.917969 C 307.449219 52.917969 411.132812 52.917969 411.132812 52.917969 C 418.648438 52.871094 424.132812 59.65625 423.359375 66.976562 Z M 423.359375 66.976562 " fill-opacity="1" fill-rule="nonzero"/></g><path fill="#8a87d5" d="M 435.585938 130.066406 L 282.996094 130.066406 C 276.273438 130.066406 270.769531 135.445312 270.769531 142.292969 L 270.769531 243.894531 C 270.769531 250.621094 276.273438 256.121094 282.996094 256.121094 L 435.585938 256.121094 C 442.308594 256.121094 447.8125 250.621094 447.8125 243.894531 L 447.8125 142.292969 C 447.8125 135.445312 442.308594 130.066406 435.585938 130.066406 Z M 435.585938 130.066406 " fill-opacity="1" fill-rule="nonzero"/><path fill="#8a87d5" d="M 283.007812 282.410156 L 435.585938 282.410156 C 436.386719 282.410156 437.183594 282.488281 437.972656 282.644531 C 438.757812 282.804688 439.523438 283.035156 440.265625 283.34375 C 441.007812 283.648438 441.710938 284.027344 442.378906 284.472656 C 443.046875 284.917969 443.664062 285.425781 444.234375 285.992188 C 444.800781 286.5625 445.308594 287.179688 445.753906 287.847656 C 446.199219 288.515625 446.578125 289.21875 446.882812 289.960938 C 447.191406 290.703125 447.421875 291.46875 447.582031 292.253906 C 447.738281 293.042969 447.816406 293.839844 447.816406 294.640625 L 447.816406 396.234375 C 447.816406 397.039062 447.738281 397.832031 447.582031 398.621094 C 447.421875 399.40625 447.191406 400.171875 446.882812 400.914062 C 446.578125 401.65625 446.199219 402.359375 445.753906 403.027344 C 445.308594 403.695312 444.800781 404.3125 444.234375 404.882812 C 443.664062 405.449219 443.046875 405.957031 442.378906 406.402344 C 441.710938 406.847656 441.007812 407.226562 440.265625 407.535156 C 439.523438 407.839844 438.757812 408.074219 437.972656 408.230469 C 437.183594 408.386719 436.386719 408.464844 435.585938 408.464844 L 283.007812 408.464844 C 282.203125 408.464844 281.40625 408.386719 280.621094 408.230469 C 279.832031 408.074219 279.066406 407.839844 278.328125 407.535156 C 277.585938 407.226562 276.878906 406.847656 276.210938 406.402344 C 275.542969 405.957031 274.925781 405.449219 274.359375 404.882812 C 273.789062 404.3125 273.285156 403.695312 272.835938 403.027344 C 272.390625 402.359375 272.015625 401.65625 271.707031 400.914062 C 271.398438 400.171875 271.167969 399.40625 271.011719 398.621094 C 270.855469 397.832031 270.777344 397.039062 270.777344 396.234375 L 270.777344 294.640625 C 270.777344 293.839844 270.855469 293.042969 271.011719 292.253906 C 271.167969 291.46875 271.398438 290.703125 271.707031 289.960938 C 272.015625 289.21875 272.390625 288.515625 272.835938 287.847656 C 273.285156 287.179688 273.789062 286.5625 274.359375 285.992188 C 274.925781 285.425781 275.542969 284.917969 276.210938 284.472656 C 276.878906 284.027344 277.585938 283.648438 278.328125 283.34375 C 279.066406 283.035156 279.832031 282.804688 280.621094 282.644531 C 281.40625 282.488281 282.203125 282.410156 283.007812 282.410156 Z M 283.007812 282.410156 " fill-opacity="1" fill-rule="nonzero"/><g clip-path="url(#c8c2866502)"><path fill="#b1afe3" d="M 643.640625 23.101562 L 539.960938 23.101562 C 491.359375 24.246094 491.332031 97.222656 539.960938 98.292969 C 539.960938 98.292969 643.640625 98.292969 643.640625 98.292969 C 692.25 97.304688 692.304688 24.179688 643.640625 23.101562 Z M 655.867188 61.613281 C 655.867188 68.460938 650.367188 73.839844 643.640625 73.839844 L 539.960938 73.839844 C 523.714844 73.925781 523.660156 47.554688 539.960938 47.554688 C 539.960938 47.554688 643.640625 47.554688 643.640625 47.554688 C 651.160156 47.507812 656.640625 54.292969 655.867188 61.613281 Z M 655.867188 61.613281 " fill-opacity="1" fill-rule="nonzero"/></g><path fill="#b1afe3" d="M 668.09375 124.703125 L 515.507812 124.703125 C 508.78125 124.703125 503.28125 130.085938 503.28125 136.929688 L 503.28125 238.535156 C 503.28125 245.257812 508.78125 250.761719 515.507812 250.761719 L 668.09375 250.761719 C 674.820312 250.761719 680.320312 245.257812 680.320312 238.535156 L 680.320312 136.929688 C 680.320312 130.085938 674.820312 124.703125 668.09375 124.703125 Z M 668.09375 124.703125 " fill-opacity="1" fill-rule="nonzero"/><path fill="#b1afe3" d="M 515.511719 277.050781 L 668.089844 277.050781 C 668.890625 277.050781 669.6875 277.128906 670.476562 277.285156 C 671.261719 277.441406 672.027344 277.671875 672.769531 277.980469 C 673.511719 278.289062 674.214844 278.664062 674.882812 279.109375 C 675.550781 279.558594 676.167969 280.0625 676.738281 280.632812 C 677.304688 281.199219 677.8125 281.816406 678.257812 282.484375 C 678.703125 283.152344 679.082031 283.859375 679.386719 284.597656 C 679.695312 285.339844 679.925781 286.105469 680.082031 286.894531 C 680.242188 287.679688 680.320312 288.476562 680.320312 289.28125 L 680.320312 390.871094 C 680.320312 391.675781 680.242188 392.472656 680.082031 393.257812 C 679.925781 394.046875 679.695312 394.8125 679.386719 395.554688 C 679.082031 396.296875 678.703125 397 678.257812 397.667969 C 677.8125 398.335938 677.304688 398.953125 676.738281 399.519531 C 676.167969 400.089844 675.550781 400.59375 674.882812 401.042969 C 674.214844 401.488281 673.511719 401.863281 672.769531 402.171875 C 672.027344 402.480469 671.261719 402.710938 670.476562 402.867188 C 669.6875 403.023438 668.890625 403.101562 668.089844 403.101562 L 515.511719 403.101562 C 514.707031 403.101562 513.910156 403.023438 513.125 402.867188 C 512.335938 402.710938 511.570312 402.480469 510.828125 402.171875 C 510.085938 401.863281 509.382812 401.488281 508.714844 401.042969 C 508.046875 400.597656 507.429688 400.089844 506.863281 399.519531 C 506.292969 398.953125 505.789062 398.335938 505.339844 397.667969 C 504.894531 397 504.519531 396.296875 504.210938 395.554688 C 503.902344 394.8125 503.671875 394.046875 503.515625 393.257812 C 503.359375 392.472656 503.28125 391.675781 503.28125 390.871094 L 503.28125 289.28125 C 503.28125 288.476562 503.359375 287.679688 503.515625 286.894531 C 503.671875 286.105469 503.902344 285.339844 504.210938 284.597656 C 504.519531 283.859375 504.894531 283.152344 505.339844 282.484375 C 505.789062 281.816406 506.292969 281.199219 506.863281 280.632812 C 507.429688 280.0625 508.046875 279.558594 508.714844 279.109375 C 509.382812 278.664062 510.085938 278.289062 510.828125 277.980469 C 511.570312 277.671875 512.335938 277.441406 513.125 277.285156 C 513.910156 277.128906 514.707031 277.050781 515.511719 277.050781 Z M 515.511719 277.050781 " fill-opacity="1" fill-rule="nonzero"/><path fill="#b1afe3" d="M 515.511719 429.390625 L 668.089844 429.390625 C 668.890625 429.390625 669.6875 429.472656 670.476562 429.628906 C 671.261719 429.785156 672.027344 430.015625 672.769531 430.324219 C 673.511719 430.628906 674.214844 431.007812 674.882812 431.453125 C 675.550781 431.898438 676.167969 432.40625 676.738281 432.972656 C 677.304688 433.542969 677.8125 434.160156 678.257812 434.828125 C 678.703125 435.496094 679.082031 436.199219 679.386719 436.941406 C 679.695312 437.683594 679.925781 438.449219 680.082031 439.238281 C 680.242188 440.023438 680.320312 440.820312 680.320312 441.621094 L 680.320312 543.214844 C 680.320312 544.019531 680.242188 544.8125 680.082031 545.601562 C 679.925781 546.390625 679.695312 547.152344 679.386719 547.894531 C 679.082031 548.636719 678.703125 549.34375 678.257812 550.011719 C 677.8125 550.679688 677.304688 551.296875 676.738281 551.863281 C 676.167969 552.429688 675.550781 552.9375 674.882812 553.382812 C 674.214844 553.832031 673.511719 554.207031 672.769531 554.515625 C 672.027344 554.820312 671.261719 555.054688 670.476562 555.210938 C 669.6875 555.367188 668.890625 555.445312 668.089844 555.445312 L 515.511719 555.445312 C 514.707031 555.445312 513.910156 555.367188 513.125 555.210938 C 512.335938 555.054688 511.570312 554.820312 510.828125 554.515625 C 510.085938 554.207031 509.382812 553.832031 508.714844 553.382812 C 508.046875 552.9375 507.429688 552.429688 506.863281 551.863281 C 506.292969 551.296875 505.789062 550.679688 505.339844 550.011719 C 504.894531 549.34375 504.519531 548.636719 504.210938 547.894531 C 503.902344 547.152344 503.671875 546.390625 503.515625 545.601562 C 503.359375 544.8125 503.28125 544.019531 503.28125 543.214844 L 503.28125 441.621094 C 503.28125 440.820312 503.359375 440.023438 503.515625 439.238281 C 503.671875 438.449219 503.902344 437.683594 504.210938 436.941406 C 504.519531 436.199219 504.894531 435.496094 505.339844 434.828125 C 505.789062 434.160156 506.292969 433.542969 506.863281 432.972656 C 507.429688 432.40625 508.046875 431.898438 508.714844 431.453125 C 509.382812 431.007812 510.085938 430.628906 510.828125 430.324219 C 511.570312 430.015625 512.335938 429.785156 513.125 429.628906 C 513.910156 429.472656 514.707031 429.390625 515.511719 429.390625 Z M 515.511719 429.390625 " fill-opacity="1" fill-rule="nonzero"/><g fill="#ffffff" fill-opacity="1"><g transform="translate(753.42295, 690.577887)"><g><path d="M 27.921875 0 L 27.921875 -689.140625 L 165.90625 -689.140625 L 165.90625 -382.859375 L 232.90625 -583.84375 L 377.265625 -583.84375 L 289.53125 -330.203125 L 401.203125 0 L 252.84375 0 L 165.90625 -275.171875 L 165.90625 0 Z M 27.921875 0 "/></g></g></g><g fill="#ffffff" fill-opacity="1"><g transform="translate(1145.049572, 690.577887)"><g><path d="M 134 6.375 C 88.800781 6.375 57.828125 -8.644531 41.078125 -38.6875 C 24.328125 -68.726562 15.953125 -111.664062 15.953125 -167.5 C 15.953125 -213.226562 21.929688 -248.320312 33.890625 -272.78125 C 45.859375 -297.238281 62.476562 -315.179688 83.75 -326.609375 C 105.019531 -338.046875 137.457031 -350.675781 181.0625 -364.5 L 219.34375 -377.265625 L 219.34375 -437.09375 C 219.34375 -452.507812 216.285156 -464.335938 210.171875 -472.578125 C 204.054688 -480.828125 196.742188 -484.953125 188.234375 -484.953125 C 180.785156 -484.953125 174.269531 -481.492188 168.6875 -474.578125 C 163.101562 -467.660156 160.3125 -458.351562 160.3125 -446.65625 L 160.3125 -411.5625 L 24.71875 -411.5625 L 24.71875 -430.703125 C 24.71875 -488.128906 38.144531 -529.070312 65 -553.53125 C 91.851562 -578 135.59375 -590.234375 196.21875 -590.234375 C 244.601562 -590.234375 283.945312 -577.601562 314.25 -552.34375 C 344.5625 -527.082031 359.71875 -491.320312 359.71875 -445.0625 L 359.71875 0 L 220.9375 0 L 220.9375 -69.390625 C 214.019531 -45.460938 202.984375 -26.851562 187.828125 -13.5625 C 172.679688 -0.269531 154.738281 6.375 134 6.375 Z M 189.03125 -102.09375 C 199.664062 -102.09375 207.242188 -106.476562 211.765625 -115.25 C 216.285156 -124.03125 218.546875 -134.800781 218.546875 -147.5625 L 218.546875 -310.265625 C 197.804688 -302.296875 182.515625 -292.191406 172.671875 -279.953125 C 162.835938 -267.722656 157.921875 -250.707031 157.921875 -228.90625 L 157.921875 -153.9375 C 157.921875 -119.375 168.289062 -102.09375 189.03125 -102.09375 Z M 189.03125 -102.09375 "/></g></g></g><g fill="#ffffff" fill-opacity="1"><g transform="translate(1530.295191, 690.577887)"><g><path d="M 27.921875 -583.84375 L 167.5 -583.84375 L 167.5 -509.671875 C 173.34375 -533.597656 183.441406 -553.003906 197.796875 -567.890625 C 212.160156 -582.785156 231.304688 -590.234375 255.234375 -590.234375 C 294.585938 -590.234375 323.703125 -578.132812 342.578125 -553.9375 C 361.453125 -529.75 370.890625 -495.320312 370.890625 -450.65625 L 370.890625 0 L 233.703125 0 L 233.703125 -436.296875 C 233.703125 -449.054688 231.175781 -459.953125 226.125 -468.984375 C 221.070312 -478.023438 213.226562 -482.546875 202.59375 -482.546875 C 188.238281 -482.546875 178.800781 -476.03125 174.28125 -463 C 169.757812 -449.976562 167.5 -432.566406 167.5 -410.765625 L 167.5 0 L 27.921875 0 Z M 27.921875 -583.84375 "/></g></g></g><g fill="#ffffff" fill-opacity="1"><g transform="translate(1928.302582, 690.577887)"><g><path d="M 253.640625 6.375 C 215.359375 6.375 187.972656 -16.488281 171.484375 -62.21875 L 171.484375 0 L 27.921875 0 L 27.921875 -689.140625 L 171.484375 -689.140625 L 171.484375 -555.9375 C 193.816406 -578.800781 219.875 -590.234375 249.65625 -590.234375 C 294.851562 -590.234375 327.285156 -576.804688 346.953125 -549.953125 C 366.628906 -523.097656 376.46875 -484.414062 376.46875 -433.90625 L 376.46875 -152.34375 C 376.46875 -104.488281 366.363281 -66.070312 346.15625 -37.09375 C 325.957031 -8.113281 295.117188 6.375 253.640625 6.375 Z M 206.578125 -102.09375 C 216.148438 -102.09375 222.929688 -105.148438 226.921875 -111.265625 C 230.910156 -117.378906 233.300781 -125.085938 234.09375 -134.390625 C 234.894531 -143.703125 235.296875 -158.191406 235.296875 -177.859375 L 235.296875 -421.140625 C 235.296875 -441.878906 233.429688 -457.296875 229.703125 -467.390625 C 225.984375 -477.492188 218.007812 -482.546875 205.78125 -482.546875 C 192.488281 -482.546875 183.445312 -477.492188 178.65625 -467.390625 C 173.875 -457.296875 171.484375 -442.410156 171.484375 -422.734375 L 171.484375 -177.859375 C 171.484375 -152.335938 173.609375 -133.328125 177.859375 -120.828125 C 182.117188 -108.335938 191.691406 -102.09375 206.578125 -102.09375 Z M 206.578125 -102.09375 "/></g></g></g><g fill="#ffffff" fill-opacity="1"><g transform="translate(2327.905318, 690.577887)"><g><path d="M 134 6.375 C 88.800781 6.375 57.828125 -8.644531 41.078125 -38.6875 C 24.328125 -68.726562 15.953125 -111.664062 15.953125 -167.5 C 15.953125 -213.226562 21.929688 -248.320312 33.890625 -272.78125 C 45.859375 -297.238281 62.476562 -315.179688 83.75 -326.609375 C 105.019531 -338.046875 137.457031 -350.675781 181.0625 -364.5 L 219.34375 -377.265625 L 219.34375 -437.09375 C 219.34375 -452.507812 216.285156 -464.335938 210.171875 -472.578125 C 204.054688 -480.828125 196.742188 -484.953125 188.234375 -484.953125 C 180.785156 -484.953125 174.269531 -481.492188 168.6875 -474.578125 C 163.101562 -467.660156 160.3125 -458.351562 160.3125 -446.65625 L 160.3125 -411.5625 L 24.71875 -411.5625 L 24.71875 -430.703125 C 24.71875 -488.128906 38.144531 -529.070312 65 -553.53125 C 91.851562 -578 135.59375 -590.234375 196.21875 -590.234375 C 244.601562 -590.234375 283.945312 -577.601562 314.25 -552.34375 C 344.5625 -527.082031 359.71875 -491.320312 359.71875 -445.0625 L 359.71875 0 L 220.9375 0 L 220.9375 -69.390625 C 214.019531 -45.460938 202.984375 -26.851562 187.828125 -13.5625 C 172.679688 -0.269531 154.738281 6.375 134 6.375 Z M 189.03125 -102.09375 C 199.664062 -102.09375 207.242188 -106.476562 211.765625 -115.25 C 216.285156 -124.03125 218.546875 -134.800781 218.546875 -147.5625 L 218.546875 -310.265625 C 197.804688 -302.296875 182.515625 -292.191406 172.671875 -279.953125 C 162.835938 -267.722656 157.921875 -250.707031 157.921875 -228.90625 L 157.921875 -153.9375 C 157.921875 -119.375 168.289062 -102.09375 189.03125 -102.09375 Z M 189.03125 -102.09375 "/></g></g></g><g fill="#ffffff" fill-opacity="1"><g transform="translate(2713.150938, 690.577887)"><g><path d="M 27.921875 -583.84375 L 167.5 -583.84375 L 167.5 -509.671875 C 173.34375 -533.597656 183.441406 -553.003906 197.796875 -567.890625 C 212.160156 -582.785156 231.304688 -590.234375 255.234375 -590.234375 C 294.585938 -590.234375 323.703125 -578.132812 342.578125 -553.9375 C 361.453125 -529.75 370.890625 -495.320312 370.890625 -450.65625 L 370.890625 0 L 233.703125 0 L 233.703125 -436.296875 C 233.703125 -449.054688 231.175781 -459.953125 226.125 -468.984375 C 221.070312 -478.023438 213.226562 -482.546875 202.59375 -482.546875 C 188.238281 -482.546875 178.800781 -476.03125 174.28125 -463 C 169.757812 -449.976562 167.5 -432.566406 167.5 -410.765625 L 167.5 0 L 27.921875 0 Z M 27.921875 -583.84375 "/></g></g></g><g fill="#8a87d5" fill-opacity="1"><g transform="translate(3299.499076, 653.456743)"><g><path d="M 164.8125 6.984375 C 112.195312 6.984375 73.785156 -6.863281 49.578125 -34.5625 C 25.367188 -62.269531 13.265625 -104.519531 13.265625 -161.3125 L 13.265625 -224.15625 L 136.171875 -224.15625 L 136.171875 -161.3125 C 136.171875 -143.15625 138.5 -129.070312 143.15625 -119.0625 C 147.8125 -109.050781 157.125 -104.046875 171.09375 -104.046875 C 180.863281 -104.046875 187.960938 -107.535156 192.390625 -114.515625 C 196.816406 -121.503906 199.492188 -129.769531 200.421875 -139.3125 C 201.347656 -148.851562 201.8125 -162.703125 201.8125 -180.859375 L 201.8125 -195.53125 C 201.8125 -247.207031 184.820312 -273.046875 150.84375 -273.046875 C 144.789062 -273.046875 140.832031 -272.8125 138.96875 -272.34375 L 138.96875 -379.890625 C 160.382812 -379.890625 176.445312 -384.660156 187.15625 -394.203125 C 197.863281 -403.742188 203.21875 -418.992188 203.21875 -439.953125 C 203.21875 -473.929688 193.441406 -490.921875 173.890625 -490.921875 C 161.785156 -490.921875 153.984375 -487.894531 150.484375 -481.84375 C 146.992188 -475.789062 144.664062 -468.109375 143.5 -458.796875 C 142.34375 -449.484375 141.53125 -442.734375 141.0625 -438.546875 L 141.0625 -420.390625 L 16.765625 -420.390625 L 16.0625 -441.34375 C 16.53125 -496.28125 29.566406 -536.664062 55.171875 -562.5 C 80.773438 -588.34375 120.113281 -601.265625 173.1875 -601.265625 C 275.144531 -601.265625 326.125 -547.957031 326.125 -441.34375 C 326.125 -410.15625 321.929688 -385.363281 313.546875 -366.96875 C 305.171875 -348.582031 290.738281 -335.664062 270.25 -328.21875 C 287.007812 -319.832031 299.460938 -309.472656 307.609375 -297.140625 C 315.753906 -284.804688 321.109375 -269.789062 323.671875 -252.09375 C 326.234375 -234.40625 327.515625 -210.660156 327.515625 -180.859375 C 327.515625 -118.941406 314.59375 -72.15625 288.75 -40.5 C 262.914062 -8.84375 221.601562 6.984375 164.8125 6.984375 Z M 164.8125 6.984375 "/></g></g></g><g fill="#8a87d5" fill-opacity="1"><g transform="translate(3644.473398, 653.456743)"><g><path d="M 180.171875 5.59375 C 139.203125 5.59375 106.84375 -1.390625 83.09375 -15.359375 C 59.351562 -29.328125 42.59375 -50.273438 32.8125 -78.203125 C 23.039062 -106.140625 18.15625 -142.457031 18.15625 -187.15625 L 18.15625 -349.15625 C 18.15625 -411.082031 21.992188 -459.851562 29.671875 -495.46875 C 37.359375 -531.082031 53.070312 -558.316406 76.8125 -577.171875 C 100.5625 -596.023438 136.175781 -605.453125 183.65625 -605.453125 C 209.726562 -605.453125 233.703125 -601.023438 255.578125 -592.171875 C 277.460938 -583.328125 294.921875 -570.0625 307.953125 -552.375 C 320.992188 -534.6875 327.515625 -513.269531 327.515625 -488.125 L 327.515625 -423.1875 L 211.59375 -423.1875 L 211.59375 -435.75 C 211.59375 -456.238281 209.847656 -472.066406 206.359375 -483.234375 C 202.867188 -494.410156 194.601562 -500 181.5625 -500 C 168.53125 -500 159.335938 -496.503906 153.984375 -489.515625 C 148.628906 -482.535156 145.953125 -471.832031 145.953125 -457.40625 L 145.953125 -336.59375 C 151.535156 -347.769531 160.144531 -356.5 171.78125 -362.78125 C 183.425781 -369.0625 197.160156 -372.203125 212.984375 -372.203125 C 245.578125 -372.203125 270.832031 -365.6875 288.75 -352.65625 C 306.675781 -339.625 319.128906 -320.300781 326.109375 -294.6875 C 333.097656 -269.082031 336.59375 -235.566406 336.59375 -194.140625 C 336.59375 -130.359375 324.488281 -81.125 300.28125 -46.4375 C 276.070312 -11.75 236.035156 5.59375 180.171875 5.59375 Z M 175.984375 -104.75 C 188.546875 -104.75 196.570312 -109.753906 200.0625 -119.765625 C 203.5625 -129.773438 205.3125 -146.1875 205.3125 -169 L 205.3125 -217.1875 C 205.3125 -249.769531 196 -266.0625 177.375 -266.0625 C 156.425781 -266.0625 145.953125 -251.863281 145.953125 -223.46875 L 145.953125 -149.4375 C 145.953125 -119.644531 155.960938 -104.75 175.984375 -104.75 Z M 175.984375 -104.75 "/></g></g></g><g fill="#8a87d5" fill-opacity="1"><g transform="translate(3989.447721, 653.456743)"><g><path d="M 172.484375 8.375 C 124.535156 8.375 86.359375 -3.378906 57.953125 -26.890625 C 29.554688 -50.398438 15.359375 -85.195312 15.359375 -131.28125 L 15.359375 -219.96875 L 140.359375 -219.96875 L 140.359375 -169 C 140.359375 -148.507812 142.453125 -132.445312 146.640625 -120.8125 C 150.835938 -109.175781 159.453125 -103.359375 172.484375 -103.359375 C 184.585938 -103.359375 192.847656 -107.3125 197.265625 -115.21875 C 201.691406 -123.132812 203.90625 -134.773438 203.90625 -150.140625 L 203.90625 -268.15625 C 203.90625 -287.25 201.925781 -302.492188 197.96875 -313.890625 C 194.019531 -325.296875 185.757812 -331 173.1875 -331 C 150.375 -331 138.96875 -314.472656 138.96875 -281.421875 L 29.328125 -281.421875 L 29.328125 -600.5625 L 314.953125 -600.5625 L 314.953125 -488.125 L 143.15625 -488.125 L 143.15625 -403.640625 C 149.207031 -411.546875 157.351562 -418.0625 167.59375 -423.1875 C 177.84375 -428.3125 189.484375 -430.875 202.515625 -430.875 C 252.796875 -430.875 287.128906 -413.179688 305.515625 -377.796875 C 323.910156 -342.410156 333.109375 -292.363281 333.109375 -227.65625 C 333.109375 -174.113281 329.265625 -130.695312 321.578125 -97.40625 C 313.898438 -64.125 298.421875 -38.171875 275.140625 -19.546875 C 251.859375 -0.929688 217.640625 8.375 172.484375 8.375 Z M 172.484375 8.375 "/></g></g></g></svg>